<svg xmlns="http://www.w3.org/2000/svg" xmlns:xlink="http://www.w3.org/1999/xlink" id="Layer_1" x="0" y="0" version="1.1" viewBox="0 0 750 750" style="enable-background:new 0 0 750 750" preserveAspectRatio="none" xml:space="preserve"><switch><g><path d="M710.7,167c-2.8,9.6-10,15.3-20.6,15.7c-11.5,0.5-23.1-0.8-33.8,5.9c-14,8.8-24.5,20.6-31.3,35.3 c-4.5,9.7-10.7,17.5-19.1,23.8c-5.8,4.4-11.9,8.6-17.7,13c-11.7,8.8-18.4,20.4-20.6,35.1c-2.5,16.5,3.5,31.5,6.8,47 c2.9,13.7,5.8,27.4,4,41.5c-1.7,13.6-11.5,21.6-25.6,21.2c-13.7-0.3-21-7.4-22.2-21.8c-0.7-8.7,0.2-17.3,1-25.9 c1.4-13.9,4-27.7,0.8-41.7c-2.5-10.8-11-20.6-19.8-21.5c-11.7-1.3-16,7.7-20.3,16c-5,9.7-9.3,19.9-14.3,29.6 c-5.6,11-13.8,17.2-27.2,15.8c-9-0.9-17.8-2.3-26.5-4.6c-14.4-3.9-22.9,0.5-27.8,14.7c-2.4,6.9-3.3,14.2-3.6,21.5 c-1.3,39.4,1.6,78.3,9.6,117c4.4,21.1,8.2,42.4,6.6,64.3c-1.5,20.6-16.1,38-34.7,40.7c-19.6,2.9-35.6-7.5-43.6-28.5 c-8.1-21.1-3.7-42,1.2-62.8c11-46.5,16.1-93.7,14.3-141.4c-0.8-20.7-3.5-41.3-15.4-59.1c-8.7-13-26.3-12.8-35.2,0 c-3.7,5.3-5.5,11.2-6.8,17.5c-3.1,15-0.6,29.8,1.1,44.6c1.9,16.1,6.3,32.1,4.2,48.5c-1.6,12.6-7.4,19.1-18.7,21.6 c-20.8,4.6-31.8-3.9-32.9-25.3c-1.1-20.5,4.1-40.3,7.6-60.2c2.8-15.5-0.5-29.7-12-40.2c-14.6-13.3-21.9-28.7-20.1-48.5 c0.3-3.6-0.4-7.3-0.9-10.9c-1.2-7.9-5-14.5-11-19.5c-12.8-10.8-28-6.3-32.9,9.7c-2.8,9.1-3.1,18.3-0.7,27.6 c3.2,12.3,5.6,24.6,5.6,37.3c-0.1,13.2-8.3,23.1-20.3,23.7c-13.6,0.8-22.5-7.3-23.4-21.5c-0.6-10,1.5-19.8,3.2-29.7 c2.9-16.5,6.3-33.9-8.4-46.7c-14.3-12.5-25.2-27.1-34.6-43.4c-7.3-12.7-17.7-20.9-34-19.9c-11.7,0.7-19.5-6.5-21.6-16.7 c-3.1-15.4,6.5-26,24.2-26c104.1-0.1,208.2,0,312.3,0c0,0,228.2,0.1,312.3,0.1c5.1,0,9.9,0.5,14.3,3.5 C709.8,148.8,713.3,158.2,710.7,167z"/></g></switch></svg>